<svg width="17" height="16" viewBox="0 0 17 16" fill="none" xmlns="http://www.w3.org/2000/svg">
<path d="M8.49935 12.3334C10.8926 12.3334 12.8327 10.3933 12.8327 8.00008C12.8327 5.60685 10.8926 3.66675 8.49935 3.66675C6.10612 3.66675 4.16602 5.60685 4.16602 8.00008C4.16602 10.3933 6.10612 12.3334 8.49935 12.3334Z" stroke="#7A7A7A" stroke-width="1.16667" stroke-linecap="round" stroke-linejoin="round"/>
<path d="M13.2597 12.7602L13.173 12.6735M13.173 3.32683L13.2597 3.24016L13.173 3.32683ZM3.73967 12.7602L3.82634 12.6735L3.73967 12.7602ZM8.49967 1.38683V1.3335V1.38683ZM8.49967 14.6668V14.6135V14.6668ZM1.88634 8.00016H1.83301H1.88634ZM15.1663 8.00016H15.113H15.1663ZM3.82634 3.32683L3.73967 3.24016L3.82634 3.32683Z" stroke="#7A7A7A" stroke-width="1.55556" stroke-linecap="round" stroke-linejoin="round"/>
</svg>
